<?xml version="1.0" encoding="utf-8"?>
<!-- Generated by IcoMoon.io -->
<svg version="1.1" xmlns="http://www.w3.org/2000/svg" xmlns:xlink="http://www.w3.org/1999/xlink" width="300" height="400" viewBox="0 0 300 400">
<svg id="icon-clear-day" width="100" height="100" viewBox="0 0 100 100" x="0" y="0">
<path fill="#ffc952" d="M50.5 25.2c14 0 25.3 11.3 25.3 25.2s-11.4 25.3-25.3 25.3-25.3-11.3-25.3-25.2 11.4-25.3 25.3-25.3zM50.5 20.6c-16.6 0-30 13.4-30 29.9s13.4 29.9 30 29.9 30-13.4 30-29.9-13.5-29.9-30-29.9v0z"></path>
<path fill="none" stroke="#ffc952" stroke-width="7" stroke-miterlimit="10" stroke-linecap="butt" stroke-linejoin="miter" d="M50.5 17.2v0"></path>
<path fill="none" stroke="#ffc952" stroke-width="7" stroke-miterlimit="10" stroke-linecap="round" stroke-linejoin="miter" d="M50.5 16.1v-10.9"></path>
<path fill="none" stroke="#ffc952" stroke-width="7" stroke-miterlimit="10" stroke-linecap="round" stroke-linejoin="miter" d="M50.5 96v-10.9"></path>
<path fill="none" stroke="#ffc952" stroke-width="7" stroke-miterlimit="10" stroke-linecap="round" stroke-linejoin="miter" d="M15.9 50.6h-10.9"></path>
<path fill="none" stroke="#ffc952" stroke-width="7" stroke-miterlimit="10" stroke-linecap="round" stroke-linejoin="miter" d="M96 50.6h-10.9"></path>
<path fill="none" stroke="#ffc952" stroke-width="7" stroke-miterlimit="10" stroke-linecap="round" stroke-linejoin="miter" d="M26.1 26.2l-7.7-7.7"></path>
<path fill="none" stroke="#ffc952" stroke-width="7" stroke-miterlimit="10" stroke-linecap="round" stroke-linejoin="miter" d="M82.6 82.7l-7.7-7.8"></path>
<path fill="none" stroke="#ffc952" stroke-width="7" stroke-miterlimit="10" stroke-linecap="round" stroke-linejoin="miter" d="M26.1 74.9l-7.7 7.8"></path>
<path fill="none" stroke="#ffc952" stroke-width="7" stroke-miterlimit="10" stroke-linecap="round" stroke-linejoin="miter" d="M82.6 18.5l-7.7 7.7"></path>
</svg>
<svg id="icon-clear-night" width="100" height="100" viewBox="0 0 100 100" x="100" y="0">
<path fill="#fff" d="M54.4 97.5c-21 0-39.2-13.5-45.4-33.6-7.7-25 6.5-51.6 31.5-59.3 2.4-0.7 5-1.3 7.5-1.6-6.1 12-7.3 26-3.4 39 6.6 21.3 25.5 36 47.5 37-6 7.8-14.2 13.5-23.7 16.4-4.6 1.4-9.3 2.1-14 2.1z"></path>
<path fill="#000" d="M43.9 6.2c-4.7 11.6-5.3 24.4-1.6 36.5 3.5 11.4 10.4 21.2 20.1 28.2 7.3 5.3 15.9 8.7 24.8 10-5.3 5.7-12.1 9.9-19.6 12.1-4.3 1.3-8.7 2-13.2 2-9.5 0-18.9-3.1-26.5-8.7-7.9-5.7-13.7-13.8-16.5-23.2-7.4-23.6 6-48.8 29.8-56.1 0.9-0.4 1.8-0.6 2.7-0.8zM52.4 0.1c-4.2 0.2-8.4 0.9-12.6 2.2-26.4 8.1-41.2 35.9-33.1 62.3 6.5 21.6 26.4 35.4 47.7 35.4 4.9 0 9.8-0.7 14.7-2.2 11.9-3.6 21.5-11.4 27.7-21.2-0.6 0-1.4 0-2 0-21.4 0-41.1-13.8-47.8-35.3-4.5-14.5-2-29.4 5.4-41.2v0z"></path>
</svg>
<svg id="icon-cloud" width="100" height="100" viewBox="0 0 100 100" x="200" y="0">
<path fill="#fff" stroke="#000" stroke-width="7" stroke-miterlimit="10" stroke-linecap="butt" stroke-linejoin="miter" d="M96.6 56.4c0-14-9-25.4-19.9-25.4-1.8 0-3.5 0.3-5.2 0.9-2.9-9.9-11-16.9-20.7-16.9-10.8 0-19.7 8.8-21.6 20.3-1.8-0.6-3.8-1-5.8-1-10.9 0-19.7 10-19.7 22.3 0 4.6 1.2 8.8 3.3 12.3v0c0 0 5.4 16 40.4 15.4 0 0 29.9 3.4 39.5-6.3v0c5.9-4.4 9.7-12.4 9.7-21.6z"></path>
</svg>
<svg id="icon-fog" width="100" height="100" viewBox="0 0 100 100" x="0" y="100">
<path fill="none" stroke="#000" stroke-width="6" stroke-miterlimit="10" stroke-linecap="round" stroke-linejoin="miter" d="M97 81c-11.7 0-11.7-10.4-23.4-10.4s-11.7 10.4-23.5 10.4-11.7-10.4-23.5-10.4c-11.7 0-11.7 10.4-23.5 10.4"></path>
<path fill="none" stroke="#000" stroke-width="6" stroke-miterlimit="10" stroke-linecap="round" stroke-linejoin="miter" d="M97 63.8c-11.7 0-11.7-10.4-23.4-10.4s-11.7 10.4-23.5 10.4-11.7-10.5-23.5-10.5c-11.7 0-11.7 10.4-23.5 10.4"></path>
<path fill="none" stroke="#000" stroke-width="6" stroke-miterlimit="10" stroke-linecap="round" stroke-linejoin="miter" d="M97 46.6c-11.7 0-11.7-10.4-23.4-10.4s-11.7 10.4-23.5 10.4-11.7-10.5-23.5-10.5c-11.7 0-11.7 10.4-23.5 10.4"></path>
<path fill="none" stroke="#000" stroke-width="6" stroke-miterlimit="10" stroke-linecap="round" stroke-linejoin="miter" d="M97 29.2c-11.7 0-11.7-10.4-23.4-10.4s-11.7 10.4-23.5 10.4-11.7-10.4-23.5-10.4c-11.7 0-11.7 10.4-23.5 10.4"></path>
</svg>
<svg id="icon-part-cloud-day" width="100" height="100" viewBox="0 0 100 100" x="100" y="100">
<path fill="none" stroke="#000" stroke-width="9" stroke-miterlimit="10" stroke-linecap="butt" stroke-linejoin="miter" d="M67.3 20.3v0"></path>
<path fill="none" stroke="#ffc952" stroke-width="7" stroke-miterlimit="10" stroke-linecap="round" stroke-linejoin="miter" d="M68.1 17.1l1.8-7.2"></path>
<path fill="none" stroke="#ffc952" stroke-width="7" stroke-miterlimit="10" stroke-linecap="round" stroke-linejoin="miter" d="M48.4 20l-3.9-6.3"></path>
<path fill="#ffc952" d="M62 22v4.6c1.3 0 2.5 0.1 3.7 0.5 4.1 1 7.5 3.5 9.7 7.1s2.8 7.8 1.8 11.8c-1.7 7.1-8 11.9-15.2 11.9-1.3 0-2.5-0.1-3.7-0.5-4.1-1-7.5-3.5-9.7-7.1s-2.8-7.8-1.8-11.8c1.7-7.1 8-11.9 15.2-11.9v-4.6zM62 22c-9.1 0-17.4 6.2-19.7 15.5-2.6 10.9 4 21.8 14.9 24.5 1.6 0.4 3.2 0.6 4.8 0.6 9.1 0 17.4-6.2 19.7-15.5 2.6-10.9-4-21.8-14.9-24.5-1.6-0.4-3.2-0.6-4.8-0.6v0z"></path>
<path fill="#fff" stroke="#000" stroke-width="7" stroke-miterlimit="10" stroke-linecap="butt" stroke-linejoin="miter" d="M79.9 66.9c0-11.5-7.4-20.9-16.4-20.9-1.5 0-2.9 0.3-4.3 0.7-2.4-8.1-9.1-13.9-17.1-13.9-8.8 0-16.2 7.3-17.7 16.8-1.5-0.5-3.1-0.8-4.8-0.8-9 0-16.2 8.2-16.2 18.4 0 3.8 1 7.3 2.7 10.2v0c0 0 4.5 13.2 33.3 12.7 0 0 24.6 2.8 32.6-5.2v0c4.7-3.8 7.9-10.4 7.9-18z"></path>
<path fill="none" stroke="#ffc952" stroke-width="7" stroke-miterlimit="10" stroke-linecap="round" stroke-linejoin="miter" d="M95.8 50.5l-7.3-1.8"></path>
<path fill="none" stroke="#ffc952" stroke-width="7" stroke-miterlimit="10" stroke-linecap="round" stroke-linejoin="miter" d="M91.6 23.7l-6.3 3.8"></path>
</svg>
<svg id="icon-part-cloud-night" width="100" height="100" viewBox="0 0 100 100" x="200" y="100">
<path fill="#fff" d="M77.6 49.2c-7 0-13.5-3.3-17.7-8.9-3.5-4.7-5-10.6-4.1-16.4 0.9-5.9 3.9-11 8.7-14.5 1-0.7 2-1.4 3.1-2-0.8 6.2 0.8 12.6 4.6 17.6 4.6 6.2 11.7 9.8 19.5 9.8 2.4 0 4.8-0.4 7.1-1.1-1.4 4.4-4.1 8.2-7.8 11-4 3-8.5 4.5-13.4 4.5z"></path>
<path fill="#000" d="M66.3 9.4c-0.3 5.8 1.4 11.6 5 16.3 4.8 6.6 12.2 10.3 20.3 10.3 1.8 0 3.6-0.2 5.4-0.6-1.4 3.4-3.8 6.4-6.7 8.5-3.7 2.7-8 4.2-12.5 4.2-6.7 0-12.9-3.1-16.9-8.5-3.3-4.5-4.8-10.1-4-15.6 0.8-5.6 3.8-10.5 8.2-13.8 0.4-0.3 0.7-0.5 1.2-0.8zM68.9 5.6c-1.8 0.7-3.5 1.7-5.2 2.9-10.2 7.7-12.3 22.2-4.7 32.4 4.6 6.1 11.5 9.3 18.6 9.3 4.8 0 9.7-1.5 13.8-4.6 4.6-3.5 7.6-8.3 8.8-13.6-2.8 1.2-5.7 1.7-8.7 1.7-7.1 0-14-3.2-18.6-9.3-4.1-5.6-5.3-12.4-4-18.8v0z"></path>
<path fill="#fff" stroke="#000" stroke-width="7" stroke-miterlimit="10" stroke-linecap="butt" stroke-linejoin="miter" d="M87.4 67.2c0-12.7-8-22.9-18-22.9-1.7 0-3.2 0.3-4.7 0.8-2.6-8.9-10-15.3-18.7-15.3-9.7 0-17.8 8-19.5 18.4-1.7-0.6-3.4-0.9-5.3-0.9-9.8 0-17.8 9-17.8 20.2 0 4.1 1.1 8 3 11.1v0c0 0 4.9 14.5 36.5 13.9 0 0 27 3.1 35.7-5.7v0c5.3-4.1 8.8-11.3 8.8-19.6z"></path>
</svg>
<svg id="icon-rain" width="100" height="100" viewBox="0 0 100 100" x="0" y="200">
<path fill="#47b8e0" d="M42.3 96.5c-1.6 3-5.3 4.1-8.2 2.5-3-1.6-4.1-5.3-2.5-8.2 1.6-3 10.9-7.7 10.9-7.7s1.3 10.4-0.2 13.4z"></path>
<path fill="#47b8e0" d="M24.3 79.9c-1.6 3-5.3 4.1-8.2 2.5-3-1.6-4.1-5.3-2.5-8.2 1.6-3 10.9-7.7 10.9-7.7s1.3 10.4-0.2 13.4z"></path>
<path fill="#47b8e0" d="M67.9 86.1c-1.6 3-5.3 4.1-8.2 2.5-3-1.6-4.1-5.3-2.5-8.2 1.6-3 10.9-7.7 10.9-7.7s1.3 10.4-0.2 13.4z"></path>
<path fill="#fff" stroke="#000" stroke-width="7" stroke-miterlimit="10" stroke-linecap="butt" stroke-linejoin="miter" d="M90 39.6c0-12.1-7.7-21.9-17.2-21.9-1.6 0-3 0.3-4.5 0.8-2.5-8.6-9.6-14.7-17.9-14.7-9.3 0-17 7.6-18.6 17.6-1.6-0.6-3.3-0.8-5-0.8-9.4 0-17 8.6-17 19.3 0 3.9 1 7.6 2.8 10.7v0c0 0 4.7 13.8 34.9 13.3 0 0 25.8 3 34.2-5.5v0c5-3.9 8.3-10.9 8.3-18.8z"></path>
</svg>
<svg id="icon-sleet" width="100" height="100" viewBox="0 0 100 100" x="100" y="200">
<path fill="#47b8e0" d="M77.2 75h-6l4.2-4.2c0.6-0.6 0.6-1.6 0-2.3-0.6-0.6-1.6-0.6-2.3 0l-4.2 4.2v-6c0-0.9-0.7-1.6-1.6-1.6s-1.6 0.7-1.6 1.6v6l-4.2-4.2c-0.6-0.6-1.6-0.6-2.3 0-0.6 0.6-0.6 1.6 0 2.3l4.2 4.2h-5.9c-0.9 0-1.6 0.7-1.6 1.6s0.7 1.6 1.6 1.6h6l-4.2 4.2c-0.6 0.6-0.6 1.6 0 2.3 0.6 0.6 1.6 0.6 2.3 0l4.2-4.2v6c0 0.9 0.7 1.6 1.6 1.6s1.6-0.7 1.6-1.6v-6l4.2 4.2c0.6 0.6 1.6 0.6 2.3 0 0.6-0.6 0.6-1.6 0-2.3l-4.2-4.2h6c0.9 0 1.6-0.7 1.6-1.6-0.1-0.9-0.8-1.6-1.7-1.6z"></path>
<path fill="#47b8e0" d="M36 57.9h-6l4.2-4.2c0.6-0.6 0.6-1.6 0-2.3s-1.6-0.6-2.3 0l-4.2 4.2v-6c0-0.9-0.7-1.6-1.6-1.6s-1.6 0.7-1.6 1.6v6l-4.2-4.2c-0.6-0.6-1.6-0.6-2.3 0s-0.6 1.6 0 2.3l4.2 4.2h-5.9c-0.9 0-1.6 0.7-1.6 1.6s0.7 1.6 1.6 1.6h6l-4.2 4.2c-0.6 0.6-0.6 1.6 0 2.3 0.6 0.6 1.6 0.6 2.3 0l4.2-4.2v6c0 0.9 0.7 1.6 1.6 1.6s1.6-0.7 1.6-1.6v-6l4.2 4.2c0.6 0.6 1.6 0.6 2.3 0 0.6-0.6 0.6-1.6 0-2.3l-4.2-4.3h6c0.9 0 1.6-0.7 1.6-1.6-0.1-0.8-0.8-1.5-1.7-1.5z"></path>
<path fill="#47b8e0" d="M48.7 87h-6l4.2-4.2c0.6-0.6 0.6-1.6 0-2.3-0.6-0.6-1.6-0.6-2.3 0l-4.2 4.2v-6c0-0.9-0.7-1.6-1.6-1.6s-1.6 0.7-1.6 1.6v6l-4.2-4.2c-0.6-0.6-1.6-0.6-2.3 0-0.6 0.6-0.6 1.6 0 2.3l4.3 4.2h-5.9c-0.9 0-1.6 0.7-1.6 1.6s0.7 1.6 1.6 1.6h6l-4.2 4.2c-0.6 0.6-0.6 1.6 0 2.3 0.6 0.6 1.6 0.6 2.3 0l4.2-4.2v6c0 0.9 0.7 1.6 1.6 1.6s1.6-0.7 1.6-1.6v-6l4.2 4.2c0.6 0.6 1.6 0.6 2.3 0 0.6-0.6 0.6-1.6 0-2.3l-4.2-4.2h6c0.9 0 1.6-0.7 1.6-1.6-0.3-0.9-0.9-1.6-1.8-1.6z"></path>
<path fill="#fff" stroke="#000" stroke-width="7" stroke-miterlimit="10" stroke-linecap="butt" stroke-linejoin="miter" d="M87 36.8c0-11.1-7.1-20.1-15.8-20.1-1.5 0-2.8 0.3-4.1 0.7-2.3-7.8-8.7-13.4-16.4-13.4-8.5 0-15.6 7-17 16.1-1.5-0.5-3-0.8-4.6-0.8-8.6 0-15.6 7.9-15.6 17.7 0 3.6 1 7 2.6 9.8v0c0 0 4.3 12.7 32 12.2 0 0 23.6 2.7 31.3-5v0c4.6-3.6 7.6-10 7.6-17.2z"></path>
</svg>
<svg id="icon-snow" width="100" height="100" viewBox="0 0 100 100" x="200" y="200">
<path fill="#fff" stroke="#000" stroke-width="7" stroke-miterlimit="10" stroke-linecap="butt" stroke-linejoin="miter" d="M86 36.3c0-10.9-7-19.8-15.5-19.8-1.4 0-2.7 0.2-4.1 0.7-2.3-7.7-8.6-13.2-16.2-13.2-8.4 0-15.4 6.9-16.8 15.9-1.4-0.5-2.9-0.7-4.6-0.7-8.5 0-15.4 7.8-15.4 17.4 0 3.6 0.9 6.9 2.6 9.6v0c0 0 4.2 12.5 31.5 12 0 0 23.3 2.7 30.8-4.9v0c4.7-3.6 7.7-9.8 7.7-17z"></path>
</svg>
<svg id="icon-thermometer" width="100" height="100" viewBox="0 0 100 100" x="0" y="300">
<path fill="#ff7473" d="M59.3 69v-22c-10.1 0.5-10.1 0.5-19.2 0v22c-3.6 2.8-6.1 7.4-6.1 12.3 0 8.7 7 15.7 15.7 15.7s15.7-7 15.7-15.7c-0.1-4.9-2.4-9.4-6.1-12.3z"></path>
<path fill="none" stroke="#000" stroke-width="6" stroke-miterlimit="10" stroke-linecap="round" stroke-linejoin="miter" d="M59.3 69v-56.4c0-5.3-4.3-9.6-9.6-9.6s-9.6 4.3-9.6 9.6v56.4c-3.6 2.8-6.1 7.4-6.1 12.3 0 8.7 7 15.7 15.7 15.7s15.7-7 15.7-15.7c-0.1-4.9-2.4-9.4-6.1-12.3z"></path>
</svg>
<svg id="icon-thunderstorm" width="100" height="100" viewBox="0 0 100 100" x="100" y="300">
<path fill="#ffc952" d="M46.7 54.5l-11.1 23.7 9.5 0.2-13.8 21.6 33.7-27.4-14.8-0.3 15.1-17.8z"></path>
<path fill="#fff" stroke="#000" stroke-width="7" stroke-miterlimit="10" stroke-linecap="butt" stroke-linejoin="miter" d="M87.8 37.2c0-11.5-7.3-20.8-16.3-20.8-1.5 0-2.9 0.3-4.3 0.7-2.4-8.1-9-13.8-17-13.8-8.8 0-16.1 7.2-17.6 16.6-1.5-0.5-3.1-0.8-4.8-0.8-8.9 0-16.1 8.2-16.1 18.3 0 3.7 1 7.2 2.7 10.1v0c0 0 4.5 13.1 33.1 12.6 0 0 24.4 2.8 32.4-5.2v0c4.7-3.6 7.9-10.1 7.9-17.7z"></path>
</svg>
<svg id="icon-wind" width="100" height="100" viewBox="0 0 100 100" x="200" y="300">
<path fill="none" stroke="#000" stroke-width="6" stroke-miterlimit="10" stroke-linecap="round" stroke-linejoin="miter" d="M17.9 44.9h33.3c0 0 9 0 11.5-10.3 0 0 3-12.7-9.4-14.5-3.2-0.4-7 0.3-11.8 4.8 0 0-4.2 3.6-0.6 10.3"></path>
<path fill="none" stroke="#000" stroke-width="6" stroke-miterlimit="10" stroke-linecap="round" stroke-linejoin="miter" d="M3.4 52.1h79.2c0 0 11.5 0.6 12.7-8.5 0 0 4.2-10.9-8.5-15.7 0 0-11.5-1.2-13.3 9 0 0-0.6 3.6 1.8 5.5"></path>
<path fill="none" stroke="#000" stroke-width="6" stroke-miterlimit="10" stroke-linecap="round" stroke-linejoin="miter" d="M15.5 60h47.2c0 0 11.5-1.8 11.5 10.9 0 0 1.2 9-7.8 12.7 0 0-7.8 2.5-13.9-7.3 0 0-1.2-3.6 1.2-7.3"></path>
</svg>
</svg>
